<svg width="210" height="209" xmlns="http://www.w3.org/2000/svg" xmlns:xlink="http://www.w3.org/1999/xlink" xml:space="preserve" overflow="hidden"><defs><clipPath id="clip0"><rect x="535" y="237" width="210" height="209"/></clipPath></defs><g clip-path="url(#clip0)" transform="translate(-535 -237)"><path d="M104.5 0C46.7838 0 0 46.7838 0 104.5 0 162.216 46.7838 209 104.5 209 162.216 209 209 162.216 209 104.5 209 46.7838 162.216 0 104.5 0ZM151.087 153.285C151.087 153.285 134.457 146.657 114.753 133.849 109.966 157.858 102.821 173.273 102.821 173.273 102.821 173.273 95.6934 156.679 90.7989 133.546 70.4705 147.086 54.5544 152.909 54.5544 152.909 54.5544 152.909 61.1638 136.332 73.9181 116.665 54.5365 111.806 35.0834 104.857 35.0834 104.857 35.0834 104.857 55.2153 98.1407 74.9185 93.6034 64.4685 76.2582 55.3761 57.0195 55.3761 57.0195 55.3761 57.0195 74.1503 66.3977 91.2276 77.0442 96.0864 57.4303 103.196 37.5128 103.196 37.5128 103.196 37.5128 109.77 57.216 114.307 76.7226 131.634 66.2726 150.819 57.1803 150.819 57.1803 150.819 57.1803 141.405 76.0438 130.705 93.1568 155.124 97.9442 170.844 105.25 170.844 105.25 170.844 105.25 154.553 112.253 131.759 117.129 145.282 137.404 151.087 153.285 151.087 153.285Z" fill="#FFFFFF" transform="matrix(1.00478 0 0 1 535 237)"/></g></svg>